<svg xmlns="http://www.w3.org/2000/svg" width="512" height="512" viewBox="0 0 512 512"><g fill="#262626"><path d="M425.614 86.281C382.172 42.981 322.258 16 255.96 16c-66.297 0-126.212 26.981-169.654 70.281-43.438 43.448-70.277 103.49-70.277 169.792 0 66.155 26.839 126.202 70.277 169.654C129.748 469.166 189.663 496 255.96 496c66.298 0 126.212-26.834 169.654-70.272 43.438-43.452 70.282-103.499 70.282-169.654 0-66.303-26.843-126.345-70.282-169.793zm-13.282 326.151c-39.993 39.993-95.261 64.835-156.372 64.835s-116.379-24.842-156.372-64.835c-40.112-39.984-64.826-95.384-64.826-156.358 0-61.116 24.714-116.384 64.826-156.5 39.993-39.993 95.261-64.708 156.372-64.708S372.339 59.58 412.332 99.573c40.117 40.116 64.821 95.384 64.821 156.5 0 60.975-24.704 116.374-64.821 156.359z"/><path d="M206.541 179h-52.348l30.828 53.658L143.703 300h52.338l41.186-67.342zM312.553 136l-82.504 144.203L283.196 373h55.665l-53.142-92.797L368.095 136z"/></g></svg>